<svg width="33" height="32" viewBox="0 0 33 32" fill="none" xmlns="http://www.w3.org/2000/svg">
<path d="M11.4395 4.01068H7.51437C6.82035 4.01068 6.15476 4.28638 5.66402 4.77712C5.17328 5.26786 4.89758 5.93345 4.89758 6.62747V10.5526M28.4486 10.5526V6.62747C28.4486 5.93345 28.1729 5.26786 27.6822 4.77712C27.1915 4.28638 26.5259 4.01068 25.8319 4.01068H21.9067M21.9067 27.5617H25.8319C26.5259 27.5617 27.1915 27.286 27.6822 26.7953C28.1729 26.3046 28.4486 25.639 28.4486 24.945V21.0198M4.89758 21.0198V24.945C4.89758 25.639 5.17328 26.3046 5.66402 26.7953C6.15476 27.286 6.82035 27.5617 7.51437 27.5617H11.4395" stroke="white" stroke-width="2.94388" stroke-linecap="round" stroke-linejoin="round"/>
</svg>
