<svg width="33" height="32" viewBox="0 0 33 32" fill="none" xmlns="http://www.w3.org/2000/svg">
<g clip-path="url(#clip0_8_405)">
<path d="M16.4906 19.7116C18.6584 19.7116 20.4158 17.9542 20.4158 15.7864C20.4158 13.6186 18.6584 11.8612 16.4906 11.8612C14.3228 11.8612 12.5654 13.6186 12.5654 15.7864C12.5654 17.9542 14.3228 19.7116 16.4906 19.7116Z" stroke="white" stroke-width="2.94388" stroke-linecap="round" stroke-linejoin="round"/>
<path d="M26.1726 19.712C25.9984 20.1066 25.9464 20.5443 26.0234 20.9688C26.1003 21.3932 26.3027 21.7849 26.6043 22.0932L26.6828 22.1717C26.9261 22.4148 27.1191 22.7034 27.2508 23.021C27.3825 23.3387 27.4503 23.6792 27.4503 24.0231C27.4503 24.367 27.3825 24.7075 27.2508 25.0252C27.1191 25.3428 26.9261 25.6314 26.6828 25.8745C26.4398 26.1178 26.1512 26.3108 25.8335 26.4425C25.5158 26.5742 25.1753 26.6419 24.8315 26.6419C24.4876 26.6419 24.1471 26.5742 23.8294 26.4425C23.5117 26.3108 23.2231 26.1178 22.9801 25.8745L22.9016 25.796C22.5932 25.4943 22.2016 25.292 21.7771 25.215C21.3527 25.1381 20.9149 25.19 20.5203 25.3642C20.1333 25.5301 19.8033 25.8055 19.5708 26.1565C19.3383 26.5075 19.2136 26.9189 19.2119 27.3399V27.5623C19.2119 28.2563 18.9362 28.9219 18.4455 29.4126C17.9547 29.9034 17.2891 30.1791 16.5951 30.1791C15.9011 30.1791 15.2355 29.9034 14.7448 29.4126C14.254 28.9219 13.9783 28.2563 13.9783 27.5623V27.4445C13.9682 27.0115 13.828 26.5915 13.576 26.2391C13.324 25.8868 12.9718 25.6184 12.5653 25.4689C12.1706 25.2947 11.7329 25.2428 11.3085 25.3197C10.884 25.3967 10.4924 25.599 10.184 25.9006L10.1055 25.9792C9.86247 26.2225 9.57387 26.4155 9.2562 26.5471C8.93853 26.6788 8.59801 26.7466 8.25413 26.7466C7.91024 26.7466 7.56973 26.6788 7.25206 26.5471C6.93438 26.4155 6.64578 26.2225 6.40275 25.9792C6.15945 25.7361 5.96644 25.4475 5.83475 25.1298C5.70307 24.8122 5.63529 24.4717 5.63529 24.1278C5.63529 23.7839 5.70307 23.4434 5.83475 23.1257C5.96644 22.808 6.15945 22.5194 6.40275 22.2764L6.48126 22.1979C6.78289 21.8895 6.98523 21.4979 7.06219 21.0735C7.13915 20.649 7.08719 20.2113 6.91303 19.8166C6.74717 19.4296 6.47178 19.0996 6.12075 18.8671C5.76972 18.6347 5.35838 18.5099 4.93735 18.5082H4.71493C4.02091 18.5082 3.35532 18.2325 2.86458 17.7418C2.37384 17.2511 2.09814 16.5855 2.09814 15.8915C2.09814 15.1974 2.37384 14.5318 2.86458 14.0411C3.35532 13.5504 4.02091 13.2747 4.71493 13.2747H4.83268C5.26575 13.2645 5.68576 13.1244 6.0381 12.8724C6.39045 12.6203 6.65883 12.2682 6.80835 11.8616C6.98252 11.467 7.03448 11.0292 6.95752 10.6048C6.88056 10.1803 6.67822 9.78869 6.37659 9.48033L6.29808 9.40183C6.05478 9.1588 5.86177 8.8702 5.73008 8.55252C5.5984 8.23485 5.53061 7.89434 5.53061 7.55045C5.53061 7.20657 5.5984 6.86605 5.73008 6.54838C5.86177 6.23071 6.05478 5.94211 6.29808 5.69908C6.54111 5.45578 6.82971 5.26277 7.14738 5.13108C7.46506 4.99939 7.80557 4.93161 8.14946 4.93161C8.49334 4.93161 8.83386 4.99939 9.15153 5.13108C9.4692 5.26277 9.7578 5.45578 10.0008 5.69908L10.0793 5.77758C10.3877 6.07921 10.7793 6.28156 11.2038 6.35851C11.6282 6.43547 12.066 6.38352 12.4606 6.20935H12.5653C12.9523 6.0435 13.2823 5.7681 13.5148 5.41708C13.7472 5.06605 13.872 4.6547 13.8737 4.23368V4.01125C13.8737 3.31724 14.1494 2.65165 14.6401 2.16091C15.1309 1.67017 15.7964 1.39447 16.4905 1.39447C17.1845 1.39447 17.8501 1.67017 18.3408 2.16091C18.8315 2.65165 19.1072 3.31724 19.1072 4.01125V4.12901C19.1089 4.55003 19.2337 4.96138 19.4661 5.3124C19.6986 5.66343 20.0286 5.93882 20.4156 6.10468C20.8103 6.27885 21.248 6.3308 21.6725 6.25384C22.0969 6.17688 22.4885 5.97454 22.7969 5.67291L22.8754 5.59441C23.1184 5.35111 23.407 5.1581 23.7247 5.02641C24.0424 4.89472 24.3829 4.82694 24.7268 4.82694C25.0707 4.82694 25.4112 4.89472 25.7289 5.02641C26.0465 5.1581 26.3351 5.35111 26.5782 5.59441C26.8215 5.83744 27.0145 6.12604 27.1462 6.44371C27.2778 6.76138 27.3456 7.1019 27.3456 7.44578C27.3456 7.78967 27.2778 8.13018 27.1462 8.44785C27.0145 8.76553 26.8215 9.05413 26.5782 9.29716L26.4996 9.37566C26.198 9.68402 25.9957 10.0757 25.9187 10.5001C25.8418 10.9245 25.8937 11.3623 26.0679 11.7569V11.8616C26.2337 12.2486 26.5091 12.5786 26.8602 12.8111C27.2112 13.0436 27.6225 13.1683 28.0436 13.17H28.266C28.96 13.17 29.6256 13.4457 30.1163 13.9364C30.6071 14.4272 30.8828 15.0928 30.8828 15.7868C30.8828 16.4808 30.6071 17.1464 30.1163 17.6371C29.6256 18.1279 28.96 18.4036 28.266 18.4036H28.1482C27.7272 18.4052 27.3159 18.53 26.9648 18.7625C26.6138 18.9949 26.3384 19.325 26.1726 19.712V19.712Z" stroke="white" stroke-width="2.94388" stroke-linecap="round" stroke-linejoin="round"/>
</g>
<defs>
<clipPath id="clip0_8_405">
<rect width="31.4014" height="31.4014" fill="white" transform="translate(0.789917 0.0856323)"/>
</clipPath>
</defs>
</svg>
