<svg width="30" height="30" viewBox="0 0 30 30" fill="none" xmlns="http://www.w3.org/2000/svg">
<path d="M4.10999 5.60004C4.11 5.26316 4.20265 4.93277 4.37782 4.645C4.55298 4.35724 4.8039 4.12319 5.10314 3.96845C5.40238 3.81371 5.73841 3.74424 6.07448 3.76764C6.41055 3.79104 6.73371 3.90641 7.00862 4.10112L19.867 13.2177C20.1058 13.3866 20.3009 13.6101 20.4359 13.8696C20.5709 14.1291 20.642 14.4171 20.6433 14.7096C20.6446 15.0021 20.5759 15.2907 20.4431 15.5514C20.3103 15.8121 20.1172 16.0372 19.8798 16.2082L7.02148 25.4607C6.74717 25.6585 6.42355 25.7768 6.0863 25.8025C5.74906 25.8281 5.41127 25.7602 5.11017 25.6061C4.80907 25.4521 4.55635 25.2179 4.37987 24.9293C4.20339 24.6408 4.11 24.3091 4.10999 23.9709L4.10999 5.60004ZM26.1528 4.67791C26.1528 4.43432 26.0561 4.20071 25.8838 4.02847C25.7116 3.85623 25.478 3.75946 25.2344 3.75946C24.9908 3.75946 24.7572 3.85623 24.5849 4.02847C24.4127 4.20071 24.3159 4.43432 24.3159 4.67791V24.8839C24.3159 25.1275 24.4127 25.3611 24.5849 25.5333C24.7572 25.7056 24.9908 25.8023 25.2344 25.8023C25.478 25.8023 25.7116 25.7056 25.8838 25.5333C26.0561 25.3611 26.1528 25.1275 26.1528 24.8839V4.67791Z" fill="white"/>
</svg>
