<svg width="30" height="30" viewBox="0 0 30 30" fill="none" xmlns="http://www.w3.org/2000/svg">
<path d="M26.1528 23.9617C26.1528 24.2986 26.0602 24.629 25.885 24.9168C25.7098 25.2045 25.4589 25.4386 25.1597 25.5933C24.8604 25.7481 24.5244 25.8175 24.1883 25.7941C23.8523 25.7707 23.5291 25.6554 23.2542 25.4606L10.3959 16.3441C10.157 16.1752 9.96195 15.9517 9.82691 15.6922C9.69188 15.4327 9.62077 15.1447 9.61951 14.8522C9.61825 14.5596 9.68688 14.271 9.81968 14.0104C9.95248 13.7497 10.1456 13.5245 10.383 13.3536L23.2413 4.10112C23.5156 3.90325 23.8393 3.78497 24.1765 3.7593C24.5138 3.73363 24.8516 3.80157 25.1526 3.95564C25.4537 4.1097 25.7065 4.3439 25.8829 4.63243C26.0594 4.92097 26.1528 5.25262 26.1528 5.59085L26.1528 23.9617ZM4.10998 24.8839C4.10998 25.1274 4.20674 25.3611 4.37898 25.5333C4.55123 25.7055 4.78484 25.8023 5.02843 25.8023C5.27202 25.8023 5.50563 25.7055 5.67787 25.5333C5.85012 25.3611 5.94688 25.1274 5.94688 24.8839L5.94688 4.6779C5.94688 4.43431 5.85012 4.2007 5.67787 4.02846C5.50563 3.85622 5.27202 3.75945 5.02843 3.75945C4.78484 3.75945 4.55123 3.85622 4.37898 4.02846C4.20674 4.2007 4.10998 4.43431 4.10998 4.6779L4.10998 24.8839Z" fill="white"/>
</svg>
