<svg width="16" height="16" viewBox="0 0 16 16" fill="none" xmlns="http://www.w3.org/2000/svg">
<path fill-rule="evenodd" clip-rule="evenodd" d="M8 0C3.58172 0 0 3.58172 0 8C0 12.4183 3.58172 16 8 16C12.4183 16 16 12.4183 16 8C16 3.58172 12.4183 0 8 0ZM1.55203 8C1.55203 4.43888 4.43888 1.55203 8 1.55203C11.5611 1.55203 14.448 4.43888 14.448 8C14.448 11.5611 11.5611 14.448 8 14.448C4.43888 14.448 1.55203 11.5611 1.55203 8Z" fill="#4D5061"/>
<path fill-rule="evenodd" clip-rule="evenodd" d="M8 4C8.41421 4 8.75 4.33579 8.75 4.75V7.25H11.25C11.6642 7.25 12 7.58579 12 8C12 8.41421 11.6642 8.75 11.25 8.75H8.75V11.25C8.75 11.6642 8.41421 12 8 12C7.58579 12 7.25 11.6642 7.25 11.25V8.75H4.75C4.33579 8.75 4 8.41421 4 8C4 7.58579 4.33579 7.25 4.75 7.25H7.25V4.75C7.25 4.33579 7.58579 4 8 4Z" fill="#4D5061"/>
</svg>
