<svg width="16" height="16" viewBox="0 0 16 16" fill="none" xmlns="http://www.w3.org/2000/svg">
<path fill-rule="evenodd" clip-rule="evenodd" d="M8 0C9.10457 0 10 0.895431 10 2H15C15.5523 2 16 2.44772 16 3C16 3.55228 15.5523 4 15 4H14L13 14C13 15.1046 12.1046 16 11 16H5C3.89543 16 3 15.1046 3 14L2 4H1C0.447715 4 0 3.55228 0 3C0 2.44772 0.447715 2 1 2H6C6 0.895431 6.89543 0 8 0ZM4.5 14L3.5 4.00289H12.5L11.5 14C11.5 14.2761 11.2761 14.5 11 14.5H5C4.72386 14.5 4.5 14.2761 4.5 14Z" fill="#4D5061"/>
</svg>
