<svg width="16" height="16" viewBox="0 0 16 16" fill="none" xmlns="http://www.w3.org/2000/svg">
<path fill-rule="evenodd" clip-rule="evenodd" d="M14.5 6.35932V5.09314L12.6744 6.94536C12.0314 7.59769 10.9802 7.60148 10.3325 6.95382L9.04617 5.66749C8.39853 5.01985 8.4023 3.96867 9.05457 3.32569L10.9067 1.5L9.64168 1.5C9.61721 1.51648 9.59324 1.53483 9.57302 1.55158C9.55916 1.56306 9.55009 1.57128 9.54714 1.57399L9.54109 1.5799C9.49063 1.62899 9.04963 2.05826 8.59506 2.50733C8.36738 2.73225 8.13956 2.95893 7.9568 3.14406C7.86514 3.2369 7.78836 3.31572 7.73016 3.37681C7.67579 3.43387 7.6554 3.45699 7.65524 3.45686C7.6552 3.45682 7.65657 3.45517 7.6591 3.4521C7.61622 3.5043 7.57526 3.55152 7.54426 3.58705C7.53483 3.59786 7.52654 3.60735 7.51904 3.61594C7.51211 3.62386 7.50585 3.63102 7.5 3.63773V6C7.5 6.14964 7.49691 6.43822 7.45465 6.73903C7.4335 6.88958 7.39716 7.08433 7.32818 7.28689C7.26566 7.47049 7.13566 7.78454 6.85749 8.06271L1.8657 13.0545C1.60365 13.3165 1.51203 13.5754 1.50119 13.7557C1.49168 13.9141 1.53586 14.0897 1.72328 14.2771L0.66262 15.3377C-0.310634 14.3645 -0.168204 12.967 0.80505 11.9938L5.79683 7.00205C5.98568 6.8132 6 6.26707 6 6V3.5C6 3.07449 6.197 2.84914 6.39398 2.62382C6.42971 2.58294 6.46544 2.54207 6.5 2.5C6.71813 2.23444 8.39249 0.6046 8.49508 0.504787L8.50479 0.495301C8.55707 0.44456 9.02853 0 9.5 0L12.6201 0C13.2147 0 13.5729 0.65895 13.2494 1.15794L13.2375 1.17633C13.0796 1.41989 12.8957 1.64554 12.689 1.8493L10.1076 4.39394C10.0483 4.45239 10.048 4.54795 10.1068 4.60683L11.3932 5.89316C11.452 5.95204 11.5476 5.9517 11.6061 5.8924L14.3036 3.1556C14.4055 3.05217 14.5184 2.96016 14.6403 2.88118L14.8421 2.75038C15.3411 2.427 16 2.78515 16 3.37977V6.5C16 7.0027 15.5 7.5 15.5 7.5L13.4994 9.50064C13.4793 9.52062 12.9922 10 12.5 10H10C9.73293 10 9.18638 10.0139 8.99753 10.2028L4.00575 15.1945C3.03248 16.1677 1.63587 16.311 0.66262 15.3377L1.72328 14.2771C1.91062 14.4644 2.08573 14.5083 2.24367 14.4988C2.42374 14.4879 2.68266 14.3963 2.94508 14.1338L7.93687 9.1421C8.21539 8.86358 8.52991 8.73362 8.71356 8.6712C8.91624 8.60231 9.11109 8.56608 9.26165 8.54502C9.56243 8.50295 9.85106 8.5 10 8.5H12.3593C12.3868 8.48136 12.4127 8.46098 12.4325 8.4442C12.4401 8.43768 12.4457 8.43272 12.4488 8.42993L14.4299 6.44874C14.4323 6.44613 14.4361 6.44184 14.4411 6.43608C14.4578 6.41663 14.4798 6.38917 14.5 6.35932Z" fill="#4D5061"/>
</svg>
