<svg width="14" height="16" viewBox="0 0 14 16" fill="white" xmlns="http://www.w3.org/2000/svg">
<path fill-rule="evenodd" clip-rule="evenodd" d="M11.5212 2.39223C11.7687 1.15465 10.8221 0 9.56003 0H4.43924C3.17715 0 2.23056 1.15465 2.47808 2.39223L2.80498 4.02676C2.90138 4.50873 2.81692 5.00932 2.56772 5.43298L0.771937 8.486C-0.0122908 9.81927 0.949027 11.5 2.49584 11.5L6.04545 11.5L6.21594 15.2508C6.235 15.67 6.58039 16 7 16C7.41961 16 7.765 15.67 7.78406 15.2508L7.95455 11.5L11.502 11.5C13.0489 11.5 14.0102 9.8191 13.2258 8.48583L11.4312 5.43536C11.1819 5.01166 11.0974 4.51101 11.1938 4.02898L11.5212 2.39223ZM4.43924 1.5H9.56003C9.87555 1.5 10.1122 1.78866 10.0503 2.09806L9.72297 3.73481C9.55426 4.57836 9.70212 5.4545 10.1383 6.19596L11.933 9.24644C12.1291 9.57975 11.8888 9.99997 11.502 9.99997L2.49583 9.99999C2.10913 9.99999 1.8688 9.57981 2.06486 9.2465L3.86064 6.19348C4.29674 5.45207 4.44455 4.57603 4.27586 3.73258L3.94895 2.09806C3.88707 1.78866 4.12372 1.5 4.43924 1.5Z" fill="white"/>
</svg>
