<svg width="16" height="16" viewBox="0 0 16 16" fill="none" xmlns="http://www.w3.org/2000/svg">
<path fill-rule="evenodd" clip-rule="evenodd" d="M10.529 5.42316L15.2261 5.82583C15.8875 5.88253 16.1546 6.70727 15.652 7.14093L12.095 10.21L13.1597 14.7754C13.3102 15.4205 12.6115 15.9297 12.0434 15.5888L7.99996 13.1626L3.95934 15.5871C3.39087 15.9282 2.69184 15.4181 2.84329 14.7727L3.91396 10.21L0.353285 7.14342C-0.150348 6.70968 0.117369 5.88365 0.779685 5.82778L5.47096 5.4321L7.31056 1.11707C7.56962 0.509425 8.43085 0.509189 8.69024 1.1167L10.529 5.42316ZM4.61596 13.5205L7.99996 11.4895L11.393 13.5295L10.493 9.7L13.481 7.12316L9.53896 6.78316L7.99996 3.16842L6.46996 6.77421L2.52796 7.11421L5.51596 9.69105L4.61596 13.5205Z" fill="#4D5061"/>
</svg>
