<svg width="64" height="55" viewBox="0 0 64 55" fill="none" xmlns="http://www.w3.org/2000/svg">
<path d="M42.7834 18.135C42.3152 15.0542 41.0984 12.1201 39.2298 9.56607C37.3612 7.01205 34.8924 4.9087 32.0199 3.42343C29.1474 1.93815 25.9505 1.11196 22.6837 1.0106C19.4169 0.909252 16.1704 1.53554 13.2025 2.83962C10.2346 4.14369 7.62732 6.08956 5.58813 8.52233C3.54895 10.9551 2.13418 13.8076 1.45643 16.8529C0.778675 19.8981 0.856651 23.052 1.68415 26.0634C2.51165 29.0749 4.06583 31.8608 6.22298 34.1995" stroke="#343A40" stroke-width="2"/>
<path d="M48.7642 22.8253C51.6704 25.4796 53.6512 28.994 54.4171 32.8548C57.1988 33.2305 59.7336 34.6495 61.5083 36.8242C63.2829 38.999 64.1645 41.767 63.9746 44.5676C63.7848 47.3681 62.5375 49.9917 60.4856 51.907C58.4336 53.8224 55.7304 54.8862 52.9234 54.883H17.8878C16.1312 54.8802 14.3937 54.519 12.7816 53.8214C11.1696 53.1238 9.71682 52.1045 8.51237 50.826C7.30791 49.5474 6.37709 48.0364 5.7769 46.3856C5.1767 44.7348 4.91976 42.9788 5.0218 41.2253C5.12384 39.4717 5.58272 37.7574 6.37035 36.1873C7.15797 34.6172 8.25776 33.2244 9.60239 32.0942C10.947 30.964 12.5082 30.1201 14.1903 29.6142C15.8724 29.1083 17.6401 28.951 19.3851 29.152C20.9411 25.5367 23.6129 22.5141 27.0098 20.5259C30.4067 18.5378 34.3506 17.6885 38.2647 18.1022C42.1788 18.5159 45.8579 20.1709 48.7642 22.8253Z" fill="#343A40"/>
</svg>
